<svg xmlns="http://www.w3.org/2000/svg" xmlns:xlink="http://www.w3.org/1999/xlink" contentStyleType="text/css" data-diagram-type="MINDMAP" height="1259px" preserveAspectRatio="none" style="width:1005px;height:1259px;background:#FFFFFF;" version="1.1" viewBox="0 0 1005 1259" width="1005px" zoomAndPan="magnify"><?plantuml 1.2026.3beta6?><defs/><g><rect fill="#F1F1F1" height="36.2969" rx="12.5" ry="12.5" style="stroke:#181818;stroke-width:1.5;" width="119.2715" x="379.3662" y="611.1172"/><text fill="#000000" font-family="sans-serif" font-size="14" lengthAdjust="spacing" textLength="99.2715" x="389.3662" y="634.1123">AAC - Sistema</text><rect fill="#F1F1F1" height="36.2969" rx="12.5" ry="12.5" style="stroke:#181818;stroke-width:1.5;" width="68.8564" x="548.6377" y="188.8906"/><text fill="#000000" font-family="sans-serif" font-size="14" lengthAdjust="spacing" textLength="48.8564" x="558.6377" y="211.8857">Regras</text><rect fill="#F1F1F1" height="36.2969" rx="12.5" ry="12.5" style="stroke:#181818;stroke-width:1.5;" width="231.668" x="667.4941" y="20"/><text fill="#000000" font-family="sans-serif" font-size="14" lengthAdjust="spacing" textLength="211.668" x="677.4941" y="42.9951">Estagio obrigatorio: nao conta</text><path d="M617.4941,207.0391 L627.4941,207.0391 C642.4941,207.0391 642.4941,38.1484 657.4941,38.1484 L667.4941,38.1484" fill="none" style="stroke:#181818;stroke-width:1;"/><rect fill="#F1F1F1" height="36.2969" rx="12.5" ry="12.5" style="stroke:#181818;stroke-width:1.5;" width="266.2236" x="667.4941" y="76.2969"/><text fill="#000000" font-family="sans-serif" font-size="14" lengthAdjust="spacing" textLength="246.2236" x="677.4941" y="99.292">Estagio nao obrigatorio: com limite</text><path d="M617.4941,207.0391 L627.4941,207.0391 C642.4941,207.0391 642.4941,94.4453 657.4941,94.4453 L667.4941,94.4453" fill="none" style="stroke:#181818;stroke-width:1;"/><rect fill="#F1F1F1" height="36.2969" rx="12.5" ry="12.5" style="stroke:#181818;stroke-width:1.5;" width="141.9395" x="667.4941" y="132.5938"/><text fill="#000000" font-family="sans-serif" font-size="14" lengthAdjust="spacing" textLength="121.9395" x="677.4941" y="155.5889">Interna x Externa</text><path d="M617.4941,207.0391 L627.4941,207.0391 C642.4941,207.0391 642.4941,150.7422 657.4941,150.7422 L667.4941,150.7422" fill="none" style="stroke:#181818;stroke-width:1;"/><rect fill="#F1F1F1" height="36.2969" rx="12.5" ry="12.5" style="stroke:#181818;stroke-width:1.5;" width="117.1797" x="667.4941" y="273.3359"/><text fill="#000000" font-family="sans-serif" font-size="14" lengthAdjust="spacing" textLength="97.1797" x="677.4941" y="296.3311">Externa exige</text><rect fill="#F1F1F1" height="36.2969" rx="12.5" ry="12.5" style="stroke:#181818;stroke-width:1.5;" width="150.1426" x="834.6738" y="188.8906"/><text fill="#000000" font-family="sans-serif" font-size="14" lengthAdjust="spacing" textLength="130.1426" x="844.6738" y="211.8857">Entidade emissora</text><path d="M784.6738,291.4844 L794.6738,291.4844 C809.6738,291.4844 809.6738,207.0391 824.6738,207.0391 L834.6738,207.0391" fill="none" style="stroke:#181818;stroke-width:1;"/><rect fill="#F1F1F1" height="36.2969" rx="12.5" ry="12.5" style="stroke:#181818;stroke-width:1.5;" width="116.0244" x="834.6738" y="245.1875"/><text fill="#000000" font-family="sans-serif" font-size="14" lengthAdjust="spacing" textLength="96.0244" x="844.6738" y="268.1826">Carga horaria</text><path d="M784.6738,291.4844 L794.6738,291.4844 C809.6738,291.4844 809.6738,263.3359 824.6738,263.3359 L834.6738,263.3359" fill="none" style="stroke:#181818;stroke-width:1;"/><rect fill="#F1F1F1" height="36.2969" rx="12.5" ry="12.5" style="stroke:#181818;stroke-width:1.5;" width="53.4277" x="834.6738" y="301.4844"/><text fill="#000000" font-family="sans-serif" font-size="14" lengthAdjust="spacing" textLength="33.4277" x="844.6738" y="324.4795">Data</text><path d="M784.6738,291.4844 L794.6738,291.4844 C809.6738,291.4844 809.6738,319.6328 824.6738,319.6328 L834.6738,319.6328" fill="none" style="stroke:#181818;stroke-width:1;"/><rect fill="#F1F1F1" height="36.2969" rx="12.5" ry="12.5" style="stroke:#181818;stroke-width:1.5;" width="115.0264" x="834.6738" y="357.7813"/><text fill="#000000" font-family="sans-serif" font-size="14" lengthAdjust="spacing" textLength="95.0264" x="844.6738" y="380.7764">Comprovante</text><path d="M784.6738,291.4844 L794.6738,291.4844 C809.6738,291.4844 809.6738,375.9297 824.6738,375.9297 L834.6738,375.9297" fill="none" style="stroke:#181818;stroke-width:1;"/><path d="M617.4941,207.0391 L627.4941,207.0391 C642.4941,207.0391 642.4941,291.4844 657.4941,291.4844 L667.4941,291.4844" fill="none" style="stroke:#181818;stroke-width:1;"/><path d="M498.6377,629.2656 L508.6377,629.2656 C523.6377,629.2656 523.6377,207.0391 538.6377,207.0391 L548.6377,207.0391" fill="none" style="stroke:#181818;stroke-width:1;"/><rect fill="#F1F1F1" height="36.2969" rx="12.5" ry="12.5" style="stroke:#181818;stroke-width:1.5;" width="70.6133" x="548.6377" y="526.6719"/><text fill="#000000" font-family="sans-serif" font-size="14" lengthAdjust="spacing" textLength="50.6133" x="558.6377" y="549.667">Limites</text><rect fill="#F1F1F1" height="36.2969" rx="12.5" ry="12.5" style="stroke:#181818;stroke-width:1.5;" width="228.0586" x="669.251" y="414.0781"/><text fill="#000000" font-family="sans-serif" font-size="14" lengthAdjust="spacing" textLength="208.0586" x="679.251" y="437.0732">Estagio nao obrigatorio: 100h</text><path d="M619.251,544.8203 L629.251,544.8203 C644.251,544.8203 644.251,432.2266 659.251,432.2266 L669.251,432.2266" fill="none" style="stroke:#181818;stroke-width:1;"/><rect fill="#F1F1F1" height="36.2969" rx="12.5" ry="12.5" style="stroke:#181818;stroke-width:1.5;" width="130.4482" x="669.251" y="470.375"/><text fill="#000000" font-family="sans-serif" font-size="14" lengthAdjust="spacing" textLength="110.4482" x="679.251" y="493.3701">Monitoria: 100h</text><path d="M619.251,544.8203 L629.251,544.8203 C644.251,544.8203 644.251,488.5234 659.251,488.5234 L669.251,488.5234" fill="none" style="stroke:#181818;stroke-width:1;"/><rect fill="#F1F1F1" height="36.2969" rx="12.5" ry="12.5" style="stroke:#181818;stroke-width:1.5;" width="110.8359" x="669.251" y="526.6719"/><text fill="#000000" font-family="sans-serif" font-size="14" lengthAdjust="spacing" textLength="90.8359" x="679.251" y="549.667">Idiomas: 30h</text><path d="M619.251,544.8203 L629.251,544.8203 C644.251,544.8203 644.251,544.8203 659.251,544.8203 L669.251,544.8203" fill="none" style="stroke:#181818;stroke-width:1;"/><rect fill="#F1F1F1" height="36.2969" rx="12.5" ry="12.5" style="stroke:#181818;stroke-width:1.5;" width="137.2158" x="669.251" y="582.9688"/><text fill="#000000" font-family="sans-serif" font-size="14" lengthAdjust="spacing" textLength="117.2158" x="679.251" y="605.9639">Defesa TCC: 10h</text><path d="M619.251,544.8203 L629.251,544.8203 C644.251,544.8203 644.251,601.1172 659.251,601.1172 L669.251,601.1172" fill="none" style="stroke:#181818;stroke-width:1;"/><rect fill="#F1F1F1" height="36.2969" rx="12.5" ry="12.5" style="stroke:#181818;stroke-width:1.5;" width="165.9404" x="669.251" y="639.2656"/><text fill="#000000" font-family="sans-serif" font-size="14" lengthAdjust="spacing" textLength="145.9404" x="679.251" y="662.2607">Outros: regulamento</text><path d="M619.251,544.8203 L629.251,544.8203 C644.251,544.8203 644.251,657.4141 659.251,657.4141 L669.251,657.4141" fill="none" style="stroke:#181818;stroke-width:1;"/><path d="M498.6377,629.2656 L508.6377,629.2656 C523.6377,629.2656 523.6377,544.8203 538.6377,544.8203 L548.6377,544.8203" fill="none" style="stroke:#181818;stroke-width:1;"/><rect fill="#F1F1F1" height="36.2969" rx="12.5" ry="12.5" style="stroke:#181818;stroke-width:1.5;" width="101.8945" x="548.6377" y="864.4531"/><text fill="#000000" font-family="sans-serif" font-size="14" lengthAdjust="spacing" textLength="81.8945" x="558.6377" y="887.4482">Fluxo Aluno</text><rect fill="#F1F1F1" height="36.2969" rx="12.5" ry="12.5" style="stroke:#181818;stroke-width:1.5;" width="105.0596" x="700.5322" y="695.5625"/><text fill="#000000" font-family="sans-serif" font-size="14" lengthAdjust="spacing" textLength="85.0596" x="710.5322" y="718.5576">Escolhe tipo</text><path d="M650.5322,882.6016 L660.5322,882.6016 C675.5322,882.6016 675.5322,713.7109 690.5322,713.7109 L700.5322,713.7109" fill="none" style="stroke:#181818;stroke-width:1;"/><rect fill="#F1F1F1" height="36.2969" rx="12.5" ry="12.5" style="stroke:#181818;stroke-width:1.5;" width="155.8711" x="700.5322" y="751.8594"/><text fill="#000000" font-family="sans-serif" font-size="14" lengthAdjust="spacing" textLength="135.8711" x="710.5322" y="774.8545">Envia comprovante</text><path d="M650.5322,882.6016 L660.5322,882.6016 C675.5322,882.6016 675.5322,770.0078 690.5322,770.0078 L700.5322,770.0078" fill="none" style="stroke:#181818;stroke-width:1;"/><rect fill="#F1F1F1" height="36.2969" rx="12.5" ry="12.5" style="stroke:#181818;stroke-width:1.5;" width="132.1436" x="700.5322" y="808.1563"/><text fill="#000000" font-family="sans-serif" font-size="14" lengthAdjust="spacing" textLength="112.1436" x="710.5322" y="831.1514">Preenche dados</text><path d="M650.5322,882.6016 L660.5322,882.6016 C675.5322,882.6016 675.5322,826.3047 690.5322,826.3047 L700.5322,826.3047" fill="none" style="stroke:#181818;stroke-width:1;"/><rect fill="#F1F1F1" height="36.2969" rx="12.5" ry="12.5" style="stroke:#181818;stroke-width:1.5;" width="120.5293" x="700.5322" y="864.4531"/><text fill="#000000" font-family="sans-serif" font-size="14" lengthAdjust="spacing" textLength="100.5293" x="710.5322" y="887.4482">Fila de analise</text><path d="M650.5322,882.6016 L660.5322,882.6016 C675.5322,882.6016 675.5322,882.6016 690.5322,882.6016 L700.5322,882.6016" fill="none" style="stroke:#181818;stroke-width:1;"/><rect fill="#F1F1F1" height="36.2969" rx="12.5" ry="12.5" style="stroke:#181818;stroke-width:1.5;" width="89.918" x="700.5322" y="948.8984"/><text fill="#000000" font-family="sans-serif" font-size="14" lengthAdjust="spacing" textLength="69.918" x="710.5322" y="971.8936">Resultado</text><rect fill="#F1F1F1" height="36.2969" rx="12.5" ry="12.5" style="stroke:#181818;stroke-width:1.5;" width="87.1016" x="840.4502" y="920.75"/><text fill="#000000" font-family="sans-serif" font-size="14" lengthAdjust="spacing" textLength="67.1016" x="850.4502" y="943.7451">Aprovado</text><path d="M790.4502,967.0469 L800.4502,967.0469 C815.4502,967.0469 815.4502,938.8984 830.4502,938.8984 L840.4502,938.8984" fill="none" style="stroke:#181818;stroke-width:1;"/><rect fill="#F1F1F1" height="36.2969" rx="12.5" ry="12.5" style="stroke:#181818;stroke-width:1.5;" width="91.1416" x="840.4502" y="977.0469"/><text fill="#000000" font-family="sans-serif" font-size="14" lengthAdjust="spacing" textLength="71.1416" x="850.4502" y="1000.042">Indeferido</text><path d="M790.4502,967.0469 L800.4502,967.0469 C815.4502,967.0469 815.4502,995.1953 830.4502,995.1953 L840.4502,995.1953" fill="none" style="stroke:#181818;stroke-width:1;"/><path d="M650.5322,882.6016 L660.5322,882.6016 C675.5322,882.6016 675.5322,967.0469 690.5322,967.0469 L700.5322,967.0469" fill="none" style="stroke:#181818;stroke-width:1;"/><rect fill="#F1F1F1" height="36.2969" rx="12.5" ry="12.5" style="stroke:#181818;stroke-width:1.5;" width="145.1592" x="700.5322" y="1033.3438"/><text fill="#000000" font-family="sans-serif" font-size="14" lengthAdjust="spacing" textLength="125.1592" x="710.5322" y="1056.3389">Horas atualizadas</text><path d="M650.5322,882.6016 L660.5322,882.6016 C675.5322,882.6016 675.5322,1051.4922 690.5322,1051.4922 L700.5322,1051.4922" fill="none" style="stroke:#181818;stroke-width:1;"/><path d="M498.6377,629.2656 L508.6377,629.2656 C523.6377,629.2656 523.6377,882.6016 538.6377,882.6016 L548.6377,882.6016" fill="none" style="stroke:#181818;stroke-width:1;"/><rect fill="#F1F1F1" height="36.2969" rx="12.5" ry="12.5" style="stroke:#181818;stroke-width:1.5;" width="154.5723" x="548.6377" y="1145.9375"/><text fill="#000000" font-family="sans-serif" font-size="14" lengthAdjust="spacing" textLength="134.5723" x="558.6377" y="1168.9326">Fluxo Coordenacao</text><rect fill="#F1F1F1" height="36.2969" rx="12.5" ry="12.5" style="stroke:#181818;stroke-width:1.5;" width="115.0332" x="753.21" y="1089.6406"/><text fill="#000000" font-family="sans-serif" font-size="14" lengthAdjust="spacing" textLength="95.0332" x="763.21" y="1112.6357">Define regras</text><path d="M703.21,1164.0859 L713.21,1164.0859 C728.21,1164.0859 728.21,1107.7891 743.21,1107.7891 L753.21,1107.7891" fill="none" style="stroke:#181818;stroke-width:1;"/><rect fill="#F1F1F1" height="36.2969" rx="12.5" ry="12.5" style="stroke:#181818;stroke-width:1.5;" width="88.2432" x="753.21" y="1174.0859"/><text fill="#000000" font-family="sans-serif" font-size="14" lengthAdjust="spacing" textLength="68.2432" x="763.21" y="1197.0811">Valida&#231;&#227;o</text><rect fill="#F1F1F1" height="36.2969" rx="12.5" ry="12.5" style="stroke:#181818;stroke-width:1.5;" width="75.4053" x="891.4531" y="1145.9375"/><text fill="#000000" font-family="sans-serif" font-size="14" lengthAdjust="spacing" textLength="55.4053" x="901.4531" y="1168.9326">Aprovar</text><path d="M841.4531,1192.2344 L851.4531,1192.2344 C866.4531,1192.2344 866.4531,1164.0859 881.4531,1164.0859 L891.4531,1164.0859" fill="none" style="stroke:#181818;stroke-width:1;"/><rect fill="#F1F1F1" height="36.2969" rx="12.5" ry="12.5" style="stroke:#181818;stroke-width:1.5;" width="76.54" x="891.4531" y="1202.2344"/><text fill="#000000" font-family="sans-serif" font-size="14" lengthAdjust="spacing" textLength="56.54" x="901.4531" y="1225.2295">Recusar</text><path d="M841.4531,1192.2344 L851.4531,1192.2344 C866.4531,1192.2344 866.4531,1220.3828 881.4531,1220.3828 L891.4531,1220.3828" fill="none" style="stroke:#181818;stroke-width:1;"/><path d="M703.21,1164.0859 L713.21,1164.0859 C728.21,1164.0859 728.21,1192.2344 743.21,1192.2344 L753.21,1192.2344" fill="none" style="stroke:#181818;stroke-width:1;"/><path d="M498.6377,629.2656 L508.6377,629.2656 C523.6377,629.2656 523.6377,1164.0859 538.6377,1164.0859 L548.6377,1164.0859" fill="none" style="stroke:#181818;stroke-width:1;"/><rect fill="#F1F1F1" height="36.2969" rx="12.5" ry="12.5" style="stroke:#181818;stroke-width:1.5;" width="78.6387" x="250.7275" y="498.5234"/><text fill="#000000" font-family="sans-serif" font-size="14" lengthAdjust="spacing" textLength="58.6387" x="260.7275" y="521.5186">Objetivo</text><rect fill="#F1F1F1" height="36.2969" rx="12.5" ry="12.5" style="stroke:#181818;stroke-width:1.5;" width="79.5273" x="121.2002" y="414.0781"/><text fill="#000000" font-family="sans-serif" font-size="14" lengthAdjust="spacing" textLength="59.5273" x="131.2002" y="437.0732">Controle</text><path d="M250.7275,516.6719 L240.7275,516.6719 C225.7275,516.6719 225.7275,432.2266 210.7275,432.2266 L200.7275,432.2266" fill="none" style="stroke:#181818;stroke-width:1;"/><rect fill="#F1F1F1" height="36.2969" rx="12.5" ry="12.5" style="stroke:#181818;stroke-width:1.5;" width="100.1719" x="100.5557" y="470.375"/><text fill="#000000" font-family="sans-serif" font-size="14" lengthAdjust="spacing" textLength="80.1719" x="110.5557" y="493.3701">Visibilidade</text><path d="M250.7275,516.6719 L240.7275,516.6719 C225.7275,516.6719 225.7275,488.5234 210.7275,488.5234 L200.7275,488.5234" fill="none" style="stroke:#181818;stroke-width:1;"/><rect fill="#F1F1F1" height="36.2969" rx="12.5" ry="12.5" style="stroke:#181818;stroke-width:1.5;" width="88.2432" x="112.4844" y="526.6719"/><text fill="#000000" font-family="sans-serif" font-size="14" lengthAdjust="spacing" textLength="68.2432" x="122.4844" y="549.667">Validacao</text><path d="M250.7275,516.6719 L240.7275,516.6719 C225.7275,516.6719 225.7275,544.8203 210.7275,544.8203 L200.7275,544.8203" fill="none" style="stroke:#181818;stroke-width:1;"/><rect fill="#F1F1F1" height="36.2969" rx="12.5" ry="12.5" style="stroke:#181818;stroke-width:1.5;" width="190.7275" x="10" y="582.9688"/><text fill="#000000" font-family="sans-serif" font-size="14" lengthAdjust="spacing" textLength="170.7275" x="20" y="605.9639">Conclusao sem bloqueio</text><path d="M250.7275,516.6719 L240.7275,516.6719 C225.7275,516.6719 225.7275,601.1172 210.7275,601.1172 L200.7275,601.1172" fill="none" style="stroke:#181818;stroke-width:1;"/><path d="M379.3662,629.2656 L369.3662,629.2656 C354.3662,629.2656 354.3662,516.6719 339.3662,516.6719 L329.3662,516.6719" fill="none" style="stroke:#181818;stroke-width:1;"/><rect fill="#F1F1F1" height="36.2969" rx="12.5" ry="12.5" style="stroke:#181818;stroke-width:1.5;" width="80.498" x="248.8682" y="723.7109"/><text fill="#000000" font-family="sans-serif" font-size="14" lengthAdjust="spacing" textLength="60.498" x="258.8682" y="746.7061">Usuarios</text><rect fill="#F1F1F1" height="36.2969" rx="12.5" ry="12.5" style="stroke:#181818;stroke-width:1.5;" width="59.7783" x="139.0898" y="639.2656"/><text fill="#000000" font-family="sans-serif" font-size="14" lengthAdjust="spacing" textLength="39.7783" x="149.0898" y="662.2607">Aluno</text><path d="M248.8682,741.8594 L238.8682,741.8594 C223.8682,741.8594 223.8682,657.4141 208.8682,657.4141 L198.8682,657.4141" fill="none" style="stroke:#181818;stroke-width:1;"/><rect fill="#F1F1F1" height="36.2969" rx="12.5" ry="12.5" style="stroke:#181818;stroke-width:1.5;" width="86.0078" x="112.8604" y="695.5625"/><text fill="#000000" font-family="sans-serif" font-size="14" lengthAdjust="spacing" textLength="66.0078" x="122.8604" y="718.5576">Avaliador</text><path d="M248.8682,741.8594 L238.8682,741.8594 C223.8682,741.8594 223.8682,713.7109 208.8682,713.7109 L198.8682,713.7109" fill="none" style="stroke:#181818;stroke-width:1;"/><rect fill="#F1F1F1" height="36.2969" rx="12.5" ry="12.5" style="stroke:#181818;stroke-width:1.5;" width="112.4561" x="86.4121" y="751.8594"/><text fill="#000000" font-family="sans-serif" font-size="14" lengthAdjust="spacing" textLength="92.4561" x="96.4121" y="774.8545">Coordenacao</text><path d="M248.8682,741.8594 L238.8682,741.8594 C223.8682,741.8594 223.8682,770.0078 208.8682,770.0078 L198.8682,770.0078" fill="none" style="stroke:#181818;stroke-width:1;"/><rect fill="#F1F1F1" height="36.2969" rx="12.5" ry="12.5" style="stroke:#181818;stroke-width:1.5;" width="91.8594" x="107.0088" y="808.1563"/><text fill="#000000" font-family="sans-serif" font-size="14" lengthAdjust="spacing" textLength="71.8594" x="117.0088" y="831.1514">Secretaria</text><path d="M248.8682,741.8594 L238.8682,741.8594 C223.8682,741.8594 223.8682,826.3047 208.8682,826.3047 L198.8682,826.3047" fill="none" style="stroke:#181818;stroke-width:1;"/><path d="M379.3662,629.2656 L369.3662,629.2656 C354.3662,629.2656 354.3662,741.8594 339.3662,741.8594 L329.3662,741.8594" fill="none" style="stroke:#181818;stroke-width:1;"/><?plantuml-src VLBBJkD04BpxA_fiAIY0n84JbWdQI21MONVlRRlNQJGp7UOHHVix7FWGVcpRCmvABjowQggdgnzt8QAFbjrWSLVLq3GjBE25GoIBrM81pzqhHTwBnWjenKKlXZBumu4xDZpWC1CuWHw_jBr90GK2MUYCl2NYwGb-XuIU9MHPOv8h2SrUyt4GFwUB7yXzVVT2lIVrobZLDMnez1Wqgc6b7Omi89td4QFepxVWj6olPl5CCh5dibui6BOSAUlMBf9t20TO7N9KiaiCTE0nwvHoCRSDP3a4yLZe5ls8i5LSR2frZ_7uA7RdPOyk5uF7N3Pyx-zokTncnPCudZWyuTO3YyLm2zSpSKz_AI3yQjj9LRZdf0jJZQSn6RJaeapL7qmwo3pxug0NioM8l9i9jsUSvdFYkOQVdiZrgjFcfNX_O8EWaq2dsmj5jg6GJ5H9wRp9VnpHsWtgqtF1y4Ed5G1ZqlH_EEIbplPEJs3kZnrDhHntNoxky-Fp_QoKBs13lTwVh-v8htk-yEhoucfvTNDntUantVm7?></g></svg>